<?xml version="1.0" encoding="iso-8859-1"?>
<!-- Generator: Adobe Illustrator 16.0.0, SVG Export Plug-In . SVG Version: 6.00 Build 0)  -->
<!DOCTYPE svg PUBLIC "-//W3C//DTD SVG 1.1//EN" "http://www.w3.org/Graphics/SVG/1.1/DTD/svg11.dtd">
<svg version="1.1" id="Capa_1" xmlns="http://www.w3.org/2000/svg" xmlns:xlink="http://www.w3.org/1999/xlink" x="0px" y="0px"
	 width="203.316px" height="203.316px" viewBox="0 0 203.316 203.316" style="enable-background:new 0 0 203.316 203.316;"
	 xml:space="preserve">
<g>
	<g>
		<path d="M65.068,104.821l79.092,79.077c6.899-8.001,11.558-17.957,13.067-28.93l-89.964-51.938
			C66.515,103.613,65.787,104.204,65.068,104.821z"/>
		<path d="M57.469,112.82l51.947,89.984c10.979-1.521,20.935-6.18,28.93-13.091l-79.089-79.08
			C58.642,111.346,58.048,112.077,57.469,112.82z"/>
		<path d="M45.577,147.278c0,30.488,24.341,55.247,54.629,56.038L52.379,120.48C48.046,128.444,45.577,137.566,45.577,147.278z"/>
		<path d="M52.014,80.35h14.894c1.297,1.425,3.124,2.362,5.212,2.362h22.953c-0.274,0.761-0.475,1.553-0.475,2.356
			c0,1.888,0.755,3.69,2.076,5.012c0.552,0.551,1.219,0.938,1.916,1.272c-8.531,0.475-16.581,2.737-23.675,6.604l82.825,47.812
			c-0.779-29.221-23.875-52.82-52.866-54.445c0.664-0.329,1.315-0.697,1.839-1.236c1.328-1.321,2.083-3.118,2.083-5.012
			c0-0.804-0.207-1.595-0.475-2.356h22.949c2.083,0,3.916-0.938,5.213-2.362h14.894c2.612,0,4.731-2.122,4.731-4.734
			s-2.119-4.731-4.731-4.731h-4.853V0h-28.388v68.512h-8.646V0H93.901v68.512h-8.766V0H56.745v70.878h-4.731
			c-2.616,0-4.734,2.119-4.734,4.731C47.279,78.228,49.398,80.35,52.014,80.35z"/>
	</g>
</g>
<g>
</g>
<g>
</g>
<g>
</g>
<g>
</g>
<g>
</g>
<g>
</g>
<g>
</g>
<g>
</g>
<g>
</g>
<g>
</g>
<g>
</g>
<g>
</g>
<g>
</g>
<g>
</g>
<g>
</g>
</svg>
